<svg xmlns="http://www.w3.org/2000/svg" width="500" height="500" viewBox="0 0 500 500">
  <path fill="#f78557" d="M391.519529,355.06031 C404.708212,347.29325 416.062153,336.767135 424.803561,324.203044 L440.110856,324.203044 C447.894708,324.203044 454.204767,317.892985 454.204767,310.109133 C454.204767,302.32528 447.894708,296.015221 440.110856,296.015221 L438.897473,296.015221 C441.913425,286.960204 443.708866,277.543556 444.236358,268.014072 L459.300976,268.014072 C467.084829,268.014072 473.394888,261.704013 473.394888,253.920161 C473.394888,246.136308 467.084829,239.826249 459.300976,239.826249 L443.751005,239.826249 C442.758387,230.228944 440.472701,220.809909 436.95606,211.825101 L439.868179,211.825101 C445.022408,212.012775 449.8675,209.370072 452.500321,204.935035 C455.133141,200.5 455.133141,194.981048 452.500321,190.546011 C449.8675,186.110973 445.022408,183.46827 439.868179,183.655945 L420.920735,183.655945 C400.417018,158.058284 369.415544,143.134191 336.61861,143.072947 L312.556289,143.072947 C297.834176,143.047681 283.270698,146.113007 269.807869,152.070649 L295.064905,152.070649 C351.571321,151.461347 398.662117,195.201717 402.217433,251.599465 C405.772748,307.997213 364.547712,357.305015 308.412119,363.796669 C305.257323,364.039345 302.102527,364.282022 298.705055,364.282022 L189.38857,364.282022 C207.11813,354.551544 222.341215,340.830317 233.854394,324.203044 C234.646829,324.403702 235.464683,324.485488 236.28116,324.445721 L331.485066,324.445721 C339.268918,324.445721 345.578978,318.135662 345.578978,310.351809 C345.578978,302.567957 339.268918,296.257898 331.485066,296.257898 L248.676335,296.257898 C252.099125,287.211916 254.539904,277.824306 255.956634,268.256749 L365.04911,268.256749 C372.832962,268.256749 379.143021,261.94669 379.143021,254.162837 C379.143021,246.378985 372.832962,240.068926 365.04911,240.068926 L257.170017,240.068926 C256.403209,230.570282 254.61321,221.182176 251.831132,212.067777 L332.007754,212.067777 C339.587008,211.791803 345.588821,205.567476 345.588821,197.983199 C345.588821,190.398923 339.587008,184.174596 332.007754,183.898621 L239.435956,183.898621 C216.067756,144.369654 173.593584,120.085524 127.674038,120 L118.452326,120 C76.5942589,120.117322 37.349566,140.36839 13,174.415566 C39.9089344,143.379674 81.2365918,128.907519 121.628946,136.375787 C162.021301,143.844055 195.442046,172.136675 209.474727,210.742389 L150.765652,210.742389 C133.709553,189.437876 104.997606,181.330721 79.3176175,190.568198 C53.6376288,199.805674 36.6690394,224.344802 37.0922546,251.632413 C37.5154697,278.920023 55.2368902,302.921129 81.1909947,311.357791 C107.145099,319.794452 135.591822,310.800799 151.979035,288.977599 L91.2352096,288.977599 C91.2252947,275.508084 96.5716481,262.587397 106.096036,253.063009 C115.620424,243.538621 128.541111,238.192268 142.010626,238.202183 L216.120333,238.202183 C216.605184,242.316117 216.848278,246.454951 216.848363,250.597358 C216.819775,298.398731 187.444007,341.277979 142.879344,358.568523 C98.3146815,375.859067 47.7060742,364.012778 15.4454337,328.73923 C39.9776917,361.001194 78.1652065,379.960318 118.695003,380 L309.102814,380 C407.741528,380 487.675534,374.175761 487.675534,366.652786 C487.731476,361.855256 448.623205,357.2444 391.519529,355.06031 Z"/>
</svg>
